<?xml version="1.0" encoding="UTF-8"?>
<svg width="94px" height="94px" viewBox="0 0 94 94" version="1.1" xmlns="http://www.w3.org/2000/svg" xmlns:xlink="http://www.w3.org/1999/xlink">
    <!-- Generator: Sketch 56.3 (81716) - https://sketch.com -->
    <title>Icons / User Guides</title>
    <desc>Created with Sketch.</desc>
    <defs>
        <linearGradient x1="4.18419471%" y1="49.6850592%" x2="94.1941481%" y2="50.2649694%" id="linearGradient-1">
            <stop stop-color="#0971BD" offset="0%"></stop>
            <stop stop-color="#58B5FF" offset="100%"></stop>
        </linearGradient>
        <linearGradient x1="50%" y1="-10.9375%" x2="50%" y2="104.92%" id="linearGradient-2">
            <stop stop-color="#85CDFC" offset="0%"></stop>
            <stop stop-color="#ADD7F6" offset="100%"></stop>
        </linearGradient>
        <linearGradient x1="50%" y1="-0.298093148%" x2="50%" y2="99.6273365%" id="linearGradient-3">
            <stop stop-color="#6EB7F7" offset="0%"></stop>
            <stop stop-color="#1278C3" offset="100%"></stop>
        </linearGradient>
        <linearGradient x1="50%" y1="-837.5%" x2="50%" y2="1443.295%" id="linearGradient-4">
            <stop stop-color="#48A4F5" offset="0%"></stop>
            <stop stop-color="#1F82CE" offset="100%"></stop>
        </linearGradient>
    </defs>
    <g id="Icons-/-User-Guides" stroke="none" stroke-width="1" fill="none" fill-rule="evenodd">
        <ellipse id="Oval-Copy" fill="url(#linearGradient-1)" opacity="0.198497954" cx="46.5" cy="72.5" rx="31.5" ry="2.5"></ellipse>
        <g id="icons8-opened-folder" transform="translate(21.000000, 20.000000)" fill-rule="nonzero">
            <path d="M48,32 L48,38 C48,39.105 47.105,40 46,40 L40,40 L48,32 Z" id="Path" fill="url(#linearGradient-2)"></path>
            <path d="M49,10 L42,10 L42,7 C42,5.346 40.654,4 39,4 L20.236,4 C19.854,4 19.511,3.788 19.341,3.447 L18.446,1.658 C17.936,0.636 16.907,0 15.764,0 L3,0 C1.346,0 0,1.346 0,3 L0,38 C0,41.309 2.691,44 6,44 L46,44 C49.309,44 52,41.309 52,38 L52,13 C52,11.346 50.654,10 49,10 Z M2,38 L2,3 C2,2.448 2.448,2 3,2 L15.764,2 C16.146,2 16.489,2.212 16.659,2.553 L17.554,4.342 C18.064,5.364 19.093,6 20.236,6 L39,6 C39.552,6 40,6.448 40,7 L40,10 L13,10 C11.346,10 10,11.346 10,13 L10,18 L7,18 C5.897,18 5,18.897 5,20 L5,41.858 C3.28,41.411 2,39.859 2,38 Z M10,36 L7,36 L7,32 L10,32 L10,36 Z M10,30 L7,30 L7,26 L10,26 L10,30 Z M10,24 L7,24 L7,20 L10,20 L10,24 Z M7,41.858 L7,38 L10,38 C10,39.859 8.72,41.411 7,41.858 Z M50,38 C50,40.206 48.206,42 46,42 L10.469,42 C11.42,40.938 12,39.535 12,38 L12,13 C12,12.448 12.448,12 13,12 L49,12 C49.552,12 50,12.448 50,13 L50,38 Z" id="Shape" fill="url(#linearGradient-3)"></path>
            <rect id="Rectangle" fill="url(#linearGradient-4)" x="40" y="16" width="8" height="2"></rect>
            <rect id="Rectangle" fill="url(#linearGradient-4)" x="40" y="20" width="8" height="2"></rect>
        </g>
    </g>
</svg>