<?xml version="1.0" encoding="UTF-8"?>
<svg width="94px" height="94px" viewBox="0 0 94 94" version="1.1" xmlns="http://www.w3.org/2000/svg" xmlns:xlink="http://www.w3.org/1999/xlink">
    <!-- Generator: Sketch 56.3 (81716) - https://sketch.com -->
    <title>Icons / Knowledge</title>
    <desc>Created with Sketch.</desc>
    <defs>
        <linearGradient x1="4.18419471%" y1="49.6850592%" x2="94.1941481%" y2="50.2649694%" id="linearGradient-1">
            <stop stop-color="#0971BD" offset="0%"></stop>
            <stop stop-color="#58B5FF" offset="100%"></stop>
        </linearGradient>
        <linearGradient x1="50%" y1="-2.37747753%" x2="50%" y2="104.165466%" id="linearGradient-2">
            <stop stop-color="#6AB5F5" offset="0%"></stop>
            <stop stop-color="#2887CF" offset="100%"></stop>
        </linearGradient>
        <linearGradient x1="50%" y1="-2.37747753%" x2="50%" y2="104.165466%" id="linearGradient-3">
            <stop stop-color="#6AB5F5" offset="0%"></stop>
            <stop stop-color="#2887CF" offset="100%"></stop>
        </linearGradient>
        <linearGradient x1="50%" y1="-2.37747753%" x2="50%" y2="104.165466%" id="linearGradient-4">
            <stop stop-color="#6AB5F5" offset="0%"></stop>
            <stop stop-color="#2887CF" offset="100%"></stop>
        </linearGradient>
        <linearGradient x1="50%" y1="-2.37747753%" x2="50%" y2="104.165466%" id="linearGradient-5">
            <stop stop-color="#6AB5F5" offset="0%"></stop>
            <stop stop-color="#2887CF" offset="100%"></stop>
        </linearGradient>
        <linearGradient x1="50%" y1="-2.37747753%" x2="50%" y2="104.165466%" id="linearGradient-6">
            <stop stop-color="#6AB5F5" offset="0%"></stop>
            <stop stop-color="#2887CF" offset="100%"></stop>
        </linearGradient>
        <linearGradient x1="50%" y1="-2.37747753%" x2="50%" y2="104.165466%" id="linearGradient-7">
            <stop stop-color="#6AB5F5" offset="0%"></stop>
            <stop stop-color="#2887CF" offset="100%"></stop>
        </linearGradient>
        <linearGradient x1="50%" y1="-2.37747753%" x2="50%" y2="104.165466%" id="linearGradient-8">
            <stop stop-color="#6AB5F5" offset="0%"></stop>
            <stop stop-color="#2887CF" offset="100%"></stop>
        </linearGradient>
        <linearGradient x1="50%" y1="-2.37747753%" x2="50%" y2="104.165466%" id="linearGradient-9">
            <stop stop-color="#6AB5F5" offset="0%"></stop>
            <stop stop-color="#2887CF" offset="100%"></stop>
        </linearGradient>
        <linearGradient x1="50%" y1="-2.37747753%" x2="50%" y2="104.165466%" id="linearGradient-10">
            <stop stop-color="#6AB5F5" offset="0%"></stop>
            <stop stop-color="#2887CF" offset="100%"></stop>
        </linearGradient>
        <linearGradient x1="50%" y1="-2.37747753%" x2="50%" y2="104.165466%" id="linearGradient-11">
            <stop stop-color="#6AB5F5" offset="0%"></stop>
            <stop stop-color="#2887CF" offset="100%"></stop>
        </linearGradient>
        <linearGradient x1="50%" y1="-2.37747753%" x2="50%" y2="104.165466%" id="linearGradient-12">
            <stop stop-color="#6AB5F5" offset="0%"></stop>
            <stop stop-color="#2887CF" offset="100%"></stop>
        </linearGradient>
        <linearGradient x1="50%" y1="-2.37747753%" x2="50%" y2="104.165466%" id="linearGradient-13">
            <stop stop-color="#6AB5F5" offset="0%"></stop>
            <stop stop-color="#2887CF" offset="100%"></stop>
        </linearGradient>
    </defs>
    <g id="Icons-/-Knowledge" stroke="none" stroke-width="1" fill="none" fill-rule="evenodd">
        <g id="polaroid" transform="translate(-1.000000, -1.000000)"></g>
        <ellipse id="Oval" fill="url(#linearGradient-1)" opacity="0.198497954" cx="47.5" cy="69.5" rx="31.5" ry="2.5"></ellipse>
        <g id="download-(2)" transform="translate(26.000000, 20.000000)" fill-rule="nonzero">
            <path d="M16.9978525,42 C15.5075376,42 14.0883316,41.2868568 13.1455401,40.0999326 C12.4403301,40.4705364 11.6886875,40.6579026 10.9027484,40.6579026 C8.70806205,40.6579026 6.78608812,39.125961 6.13065215,36.9361818 C3.5022167,36.780177 1.40833002,34.447602 1.40833002,31.6016274 C1.40833002,31.3994058 1.41920599,31.1955294 1.44053652,30.9916572 C0.509042382,29.988798 0,28.6714638 0,27.2410446 C0,25.6150104 0.698935602,24.0855426 1.85965099,23.0967156 C1.44681521,22.2977286 1.23809443,21.4302354 1.23809443,20.5086798 C1.23809443,18.7109622 2.12107449,17.0263254 3.53316746,16.046163 C3.31775508,15.4403214 3.2052409,14.806827 3.2052409,14.183652 C3.2052409,11.7169458 4.7833936,9.6064038 6.97347837,9.005514 C6.97054974,8.9345298 6.96887684,8.8635456 6.96887684,8.792973 C6.96887684,5.8467108 9.22379603,3.449754 11.9957049,3.449754 C12.096926,3.449754 12.1956398,3.4530552 12.291425,3.4588344 C13.0058381,1.3920354 14.8587975,0 16.9978525,0 C19.7559568,0 22,2.3862258 22,5.3188674 C22,5.715885 21.6737463,6.0377898 21.2713651,6.0377898 C20.8689839,6.0377898 20.5427302,5.715885 20.5427302,5.3188674 C20.5427302,3.1786104 18.9524501,1.4378406 16.9978525,1.4378406 C15.3343734,1.4378406 13.9097273,2.6614938 13.5336996,4.4138178 C13.4918728,4.6073748 13.371407,4.775757 13.1999157,4.8785184 C13.0288415,4.9812798 12.8226322,5.0101674 12.6281332,4.9581672 C12.4578934,4.9119462 12.2391395,4.8875946 11.9957007,4.8875946 C10.0272985,4.8875946 8.42614235,6.6395028 8.42614235,8.7929688 C8.42614235,9.0348132 8.44914578,9.2766534 8.47131489,9.5189052 C8.50686719,9.9047802 8.22620748,10.2489702 7.83637513,10.2968418 C6.02691963,10.519698 4.66250641,12.1907184 4.66250641,14.1836436 C4.66250641,14.8035174 4.81392295,15.4411362 5.10002277,16.027998 C5.27109694,16.3787904 5.12846632,16.8001596 4.77794923,16.9784454 C3.512667,17.623494 2.69535994,19.008927 2.69535994,20.5086756 C2.69535994,21.373695 2.94005019,22.1747442 3.42273909,22.889538 C3.53149031,23.0504904 3.56997125,23.2477602 3.52940025,23.4376044 C3.48882925,23.6266212 3.37254785,23.7917022 3.20690954,23.8948752 C2.12734041,24.5708778 1.45726551,25.852722 1.45726551,27.2410404 C1.45726551,28.404852 1.90231205,29.461362 2.71083319,30.2174292 C2.8865089,30.3816828 2.96807231,30.6218724 2.92833564,30.8571144 C2.8865089,31.1039064 2.86559553,31.3548312 2.86559553,31.6016232 C2.86601269,33.7773786 4.49268373,35.5255698 6.47070617,35.507409 C6.48994664,35.507409 6.50960427,35.5065858 6.52884474,35.5032846 C6.92453437,35.4372522 7.34782896,35.6848716 7.41893356,36.0744594 C7.7510445,37.8969402 9.2162616,39.2200536 10.9027441,39.2200536 C11.6171572,39.2200536 12.2989467,38.9922456 12.9280292,38.5424004 C13.0957575,38.4227172 13.3061512,38.3797974 13.5085933,38.4218898 C13.7106182,38.4639864 13.884621,38.5894446 13.9875192,38.7669072 C14.6312449,39.87459 15.7848473,40.5621468 16.997844,40.5621468 C18.9524416,40.5621468 20.5427217,38.8106502 20.5427217,36.6571884 C20.5427217,36.2601708 20.8689754,35.938266 21.2713566,35.938266 C21.6737378,35.938266 22,36.2601708 22,36.6571884 C22,39.6030432 19.7559568,42 16.9978525,42 Z" id="Path" fill="url(#linearGradient-2)"></path>
            <path d="M21,37 C20.4477601,37 20,36.6857182 20,36.2981023 L20,5.70189765 C20,5.3142818 20.4477601,5 21,5 C21.5522399,5 22,5.3142818 22,5.70189765 L22,36.2981064 C22,36.6857182 21.5522399,37 21,37 Z" id="Path" fill="url(#linearGradient-3)"></path>
            <path d="M10.2984806,19 C10.0686251,19 9.84360809,18.8617033 9.708918,18.6069177 C8.70521005,16.7099203 6.62884449,16.1522743 5.07993305,17.3686896 C4.75289303,17.6239697 4.31898737,17.5069863 4.11009872,17.1044857 C3.90161635,16.7024846 3.9979924,16.1691231 4.32503653,15.9123599 C6.52036603,14.1908377 9.46414071,14.9774917 10.8864262,17.6661018 C11.0977321,18.0656261 11.0057923,18.6004707 10.6803611,18.8602152 C10.5622097,18.9548865 10.4295387,19 10.2984806,19 Z" id="Path" fill="url(#linearGradient-4)"></path>
            <path d="M6.71809481,37 C6.36476006,37 6.05641551,36.7438327 6.00688429,36.3903911 C5.95239617,36.0045232 6.22730683,35.6478352 6.62067907,35.5943347 C7.517639,35.4727355 8.31594397,35.0098549 8.867412,34.2900028 C9.41888002,33.5701465 9.65374899,32.6865381 9.52950296,31.8021213 C9.47501484,31.4162535 9.7499255,31.0595655 10.1432977,31.006065 C10.5341957,30.9558025 10.8995026,31.2233175 10.9535749,31.6091854 C11.1306539,32.8656927 10.7975459,34.1189537 10.0161616,35.138747 C9.23271472,36.1609741 8.09676066,36.8192243 6.81716145,36.9935115 C6.78413923,36.9975704 6.75070534,37 6.71809481,37 Z" id="Path" fill="url(#linearGradient-5)"></path>
            <path d="M21.3053709,23 C21.0170898,23 20.7475478,22.8222565 20.6486623,22.5395905 C20.2064715,21.2750341 19.0114743,20.400413 17.6749316,20.3632196 C17.2913521,20.3526492 16.9895138,20.0386626 17.0002792,19.6624254 C17.0114464,19.2861921 17.3551495,19.0160527 17.7140086,19 C19.6263181,19.0532462 21.3332848,20.2978372 21.9620794,22.0964051 C22.0868824,22.452673 21.8934979,22.8402615 21.530654,22.9631931 C21.4560912,22.9882543 21.3799337,23 21.3053709,23 Z" id="Path" fill="url(#linearGradient-6)"></path>
            <path d="M14.2477494,28 C9.96398312,28 6.41994262,24.9040509 6.00365408,20.7988107 C5.96306018,20.3991875 6.26534565,20.0434084 6.67860624,20.004154 C7.09014411,19.961143 7.46022232,20.2572099 7.50038114,20.656833 C7.84109832,24.0137679 10.7417099,26.5451466 14.2477494,26.5451466 C14.6631721,26.5451466 15,26.8708593 15,27.2725733 C15,27.6742873 14.6631721,28 14.2477494,28 Z" id="Path" fill="url(#linearGradient-7)"></path>
            <path d="M5.69129222,28 C5.51428817,28 5.33728816,27.9210293 5.20235312,27.7630926 C4.93248303,27.4462926 4.93248303,26.9343893 5.20274893,26.6185159 C6.31239166,25.3206495 7.89708377,24.7511479 9.43970688,25.101394 C9.81434963,25.1859336 10.0596148,25.6105082 9.98738346,26.0490143 C9.91515207,26.4875204 9.55598632,26.779237 9.17777319,26.6900504 C8.08519475,26.4457116 6.96483686,26.8442714 6.17983551,27.7630878 C6.04490451,27.9210293 5.86829627,28 5.69129222,28 Z" id="Path" fill="url(#linearGradient-8)"></path>
            <path d="M18.2239976,38 C17.7954607,38 17.4479998,37.715376 17.4479998,37.3643382 C17.4479998,36.1732912 16.9842743,34.9793291 16.1419024,34.0021177 C15.8951155,33.7153027 15.9784175,33.3190186 16.3281043,33.1168622 C16.6795773,32.9139742 17.1620123,32.9818474 17.4096922,33.2693903 C18.4351516,34.4589778 19,35.9134814 19,37.3643382 C19,37.715376 18.6525346,38 18.2239976,38 Z" id="Path" fill="url(#linearGradient-9)"></path>
            <path d="M15.32285,7 C15.0893123,7 14.8620017,6.8506925 14.7362826,6.58289873 C14.2672585,5.58590441 13.4522119,4.86922744 12.5558192,4.66549262 C12.1876064,4.58168514 11.9435598,4.14484025 12.0112876,3.68920754 C12.0786232,3.23357483 12.4324333,2.92628891 12.8002539,3.01539502 C14.1002801,3.31063772 15.2329397,4.30329903 15.9078645,5.73906457 C16.0962529,6.1397896 15.9864894,6.65321702 15.6630376,6.88584674 C15.5556072,6.96339489 15.4384483,7 15.32285,7 Z" id="Path" fill="url(#linearGradient-10)"></path>
            <path d="M16.3501606,16 C16.2603091,16 16.1689666,15.9780764 16.0817218,15.9311592 C13.9841859,14.8099692 12.4630483,12.5601325 12.0126681,9.91302993 C11.9425771,9.49910596 12.1703757,9.09702064 12.5219538,9.01414571 C12.8768861,8.93434088 13.2157877,9.20006097 13.2862543,9.61311031 C13.6546106,11.780072 14.9006013,13.6221249 16.619343,14.541179 C16.945568,14.7156929 17.0902272,15.1682029 16.9414664,15.5523138 C16.8329739,15.8338173 16.5969721,16 16.3501606,16 Z" id="Path" fill="url(#linearGradient-11)"></path>
            <path d="M14.7750161,18 C14.4392426,18 14.1444463,17.7707153 14.0911367,17.45009 C13.8631769,16.0755008 14.0648807,14.6703383 14.673567,13.3859742 C14.8291193,13.0578934 15.2384906,12.910627 15.5881917,13.0560267 C15.9378888,13.2017982 16.095429,13.5854331 15.9402735,13.9131421 C15.4394008,14.9689689 15.2735,16.1232237 15.4604826,17.2510029 C15.5193633,17.6051838 15.26037,17.9369942 14.8820281,17.9921727 C14.8462292,17.9973896 14.8104222,18 14.7750161,18 Z" id="Path" fill="url(#linearGradient-12)"></path>
            <path d="M25.0211951,42 C22.2528133,42 20,39.6030432 20,36.6571968 C20,36.2601792 20.3258881,35.9382744 20.7278184,35.9382744 C21.1297487,35.9382744 21.4556368,36.2601792 21.4556368,36.6571968 C21.4556368,38.8106628 23.0549987,40.5621552 25.0211951,40.5621552 C26.2328325,40.5621552 27.3843088,39.8745984 28.0285632,38.7669156 C28.1321752,38.5878024 28.3084917,38.4615168 28.5123822,38.4202476 C28.7179395,38.3798016 28.9301851,38.4251994 29.0964755,38.5490112 C29.6797311,38.9823462 30.3858262,39.2200578 31.0843952,39.2200578 C32.7831937,39.2200578 34.257216,37.8969444 34.5889548,36.0744636 C34.6248882,35.8788444 34.7410351,35.7063336 34.9098298,35.5982088 C35.0794579,35.4900798 35.2891992,35.457891 35.4813883,35.504112 C35.5164798,35.5107144 35.5557552,35.50659 35.5958641,35.50659 C37.5486923,35.50659 39.1371904,33.7550934 39.1371904,31.6016274 C39.1371904,31.3548354 39.1163005,31.1039106 39.0745206,30.8571186 C39.0352452,30.625182 39.1137961,30.3882894 39.2850952,30.2240358 C40.0856138,29.4547638 40.5443632,28.3677114 40.5443632,27.2410446 C40.5443632,25.8618024 39.8650088,24.5799582 38.7720269,23.8957026 C38.6065785,23.7917022 38.4904274,23.6266212 38.4494809,23.4376044 C38.4093678,23.2477644 38.4469722,23.0504904 38.5564392,22.889538 C39.0544641,22.1516316 39.3068186,21.3505824 39.3068186,20.5086756 C39.3068186,19.008927 38.4904231,17.623494 37.2269797,16.9784454 C36.8776973,16.8001596 36.7348055,16.3792062 36.9052713,16.0284096 C37.1910505,15.4411362 37.3422974,14.8031058 37.3422974,14.1836436 C37.3422974,12.189891 35.9693912,10.5192864 34.1485909,10.2968418 C33.9505511,10.272906 33.7700592,10.1689056 33.6522371,10.0096038 C33.5335816,9.850302 33.485951,9.649731 33.5218802,9.4553466 C33.5628266,9.2349642 33.5828789,9.012108 33.5828789,8.7929646 C33.5828789,6.6394986 31.983517,4.8875904 30.0173206,4.8875904 C29.7708168,4.8875904 29.5585712,4.9111146 29.3847634,4.958163 C29.1900656,5.0097516 28.9845041,4.9816872 28.8140426,4.8785142 C28.6427392,4.7753412 28.5224126,4.6073706 28.4806328,4.413402 C28.1054431,2.6614938 26.6832311,1.4378406 25.0211994,1.4378406 C23.0550029,1.4378406 21.455641,3.1786062 21.455641,5.3188674 C21.455641,5.715885 21.129753,6.0377898 20.7278226,6.0377898 C20.3258923,6.0377898 20,5.715885 20,5.3188674 C20,2.3862258 22.2528133,0 25.0211951,0 C27.1578573,0 29.0087403,1.3920354 29.721511,3.4588344 C29.8176098,3.4530552 29.9162087,3.449754 30.0173163,3.449754 C32.7857024,3.449754 35.0385115,5.8467108 35.0385115,8.792973 C35.0385115,8.8651962 35.0368404,8.937831 35.0334984,9.0104658 C37.2228042,9.617958 38.7979342,11.7231408 38.7979342,14.183652 C38.7979342,14.8064154 38.6859628,15.4403214 38.4703708,16.046163 C39.8808857,17.0259096 40.7624553,18.7109622 40.7624553,20.5086798 C40.7624553,21.4162074 40.5468676,22.2845238 40.119872,23.097543 C41.2930715,24.091326 42,25.6207896 42,27.2410446 C42,28.6268892 41.4794142,29.9714646 40.5602401,30.985878 C40.5819634,31.191405 40.5928272,31.3969278 40.5928272,31.6016232 C40.5928272,34.4475978 38.5012911,36.780177 35.8757968,36.9361776 C35.219841,39.125961 33.2904114,40.6578984 31.0843952,40.6578984 C30.3214811,40.6578984 29.5552291,40.4639298 28.866682,40.1032296 C27.9249469,41.28768 26.507748,42 25.0211951,42 Z" id="Path" fill="url(#linearGradient-2)"></path>
            <path d="M32.7015097,19 C32.5700513,19 32.4377927,18.9550516 32.3192405,18.8607114 C31.9942303,18.6018939 31.9022907,18.0689477 32.1135869,17.6708365 C33.5507285,14.9636153 36.4314627,14.1930892 38.6718532,15.9208514 C39.0000888,16.1737425 39.0984795,16.7052058 38.8920216,17.1072629 C38.6847553,17.50932 38.2524863,17.6298391 37.9234463,17.376948 C36.3403315,16.1549679 34.3047861,16.6982892 33.2910454,18.6083129 C33.1563655,18.8621892 32.9313588,19 32.7015097,19 Z" id="Path" fill="url(#linearGradient-4)"></path>
            <path d="M35.2818221,37 C35.2496332,37 35.2166169,36.9975659 35.1836006,36.9935145 C33.9058809,36.8216294 32.7717764,36.1705759 31.9917751,35.1595344 C31.204344,34.1387606 30.8684059,32.8780044 31.0466923,31.6083246 C31.1019938,31.2215821 31.4717714,30.9597051 31.8572361,31.0051074 C32.2509537,31.0586165 32.5249836,31.4153618 32.4713369,31.8012915 C32.3450509,32.6972039 32.58194,33.5866267 33.137438,34.3065985 C33.685502,35.0168379 34.4811904,35.4741201 35.3784015,35.5941174 C35.7712959,35.6468179 36.0469764,36.0027504 35.9933254,36.3894888 C35.9437947,36.7429872 35.6359211,37 35.2818221,37 Z" id="Path" fill="url(#linearGradient-5)"></path>
            <path d="M20.6915031,30 C20.61411,30 20.5355254,29.9874794 20.4585282,29.9600847 C20.0989479,29.833298 19.9120147,29.4427668 20.0406073,29.0882363 C20.6922988,27.2944493 22.3560538,26.0821561 24.279373,26.001545 C24.624667,25.9757193 24.9826599,26.2770294 24.9993293,26.6534749 C25.0159986,27.0291359 24.719921,27.3468852 24.3381136,27.3633205 C22.9791687,27.4204515 21.8035866,28.2782143 21.3423989,29.5484231 C21.2411954,29.8262572 20.9752777,30 20.6915031,30 Z" id="Path" fill="url(#linearGradient-6)"></path>
            <path d="M27.7522147,28 C27.3368161,28 27,27.6742646 27,27.2725226 C27,26.8707848 27.3368161,26.5450451 27.7522147,26.5450451 C31.2585214,26.5450451 34.1594249,24.0134898 34.4988294,20.6563208 C34.5394213,20.2570863 34.9012773,19.9639227 35.3209956,20.0035963 C35.7346715,20.0424326 36.0369381,20.3986531 35.9963461,20.7983084 C35.5800819,24.903835 32.0357803,28 27.7522147,28 Z" id="Path" fill="url(#linearGradient-7)"></path>
            <path d="M36.3057093,28 C36.1254677,28 35.9444348,27.9182337 35.8088569,27.7556325 C35.054407,26.8543405 33.9075771,26.445509 32.8261439,26.6898765 C32.4489169,26.7790752 32.0852481,26.4873189 32.0126766,26.0487529 C31.9401012,25.6101869 32.1865348,25.1855545 32.5629623,25.1010034 C34.1213104,24.7516361 35.709165,25.320284 36.8025616,26.6257646 C37.0705277,26.9453973 37.0649437,27.4573657 36.7905983,27.769566 C36.6558199,27.9228766 36.4803669,28 36.3057093,28 Z" id="Path" fill="url(#linearGradient-8)"></path>
            <path d="M23.7758662,38 C23.3474065,38 23,37.7154122 23,37.3644191 C23,35.9137467 23.5647526,34.4594281 24.5909264,33.2699918 C24.8358901,32.9824855 25.3213617,32.9131617 25.671438,33.1174832 C26.0215142,33.3196102 26.1052462,33.7158476 25.8576083,34.0026261 C25.0158235,34.9804447 24.5517324,36.174255 24.5517324,37.3644191 C24.5517324,37.7154122 24.2043305,38 23.7758662,38 Z" id="Path" fill="url(#linearGradient-9)"></path>
            <path d="M26.6775899,7 C26.5623647,7 26.4448061,6.96338294 26.3373692,6.8858144 C26.0134977,6.65310876 25.9037236,6.1395138 26.0921303,5.738658 C26.7671207,4.30242394 27.8998904,3.3094387 29.2000429,3.01409965 C29.5682876,2.92978431 29.9209633,3.23235557 29.9886977,3.68813206 C30.0564321,4.14391345 29.81275,4.58090089 29.4445014,4.66473572 C28.5484058,4.86853702 27.73328,5.58544787 27.2646025,6.58276753 C27.138483,6.85064378 26.9111502,7 26.6775899,7 Z" id="Path" fill="url(#linearGradient-10)"></path>
            <path d="M24.8273428,18 C24.6193408,18 24.4113436,17.9302468 24.2508294,17.7903161 C23.9231558,17.5053516 23.9155585,17.0362195 24.2337355,16.7427452 C25.921481,15.1873414 26.6632545,12.9948048 26.2197128,10.8771203 C26.135181,10.4751919 26.4315134,10.0881449 26.8798059,10.01244 C27.338547,9.93843191 27.7611962,10.202135 27.8457232,10.6040633 C28.388044,13.1938536 27.4819577,15.875087 25.4209549,17.7754262 C25.2585414,17.924715 25.0429421,18 24.8273428,18 Z" id="Path" fill="url(#linearGradient-13)"></path>
            <path d="M26.7003315,15 C26.3703806,15 26.0766378,14.7094522 26.0122602,14.2925963 C25.9406345,13.8208296 26.1901104,13.3655341 26.5707656,13.2761719 C27.813321,12.9836224 28.9359706,12.2797142 29.8163802,11.2398277 C30.0948282,10.9088385 30.5398651,10.9218194 30.8070437,11.2702806 C31.0734196,11.618244 31.062961,12.1688866 30.7820969,12.4998757 C29.7061263,13.7704049 28.3404423,14.6295704 26.8315068,14.9845246 C26.7872439,14.9950058 26.7437877,15 26.7003315,15 Z" id="Path" fill="url(#linearGradient-6)"></path>
        </g>
    </g>
</svg>