<?xml version="1.0" encoding="UTF-8"?>
<svg width="94px" height="94px" viewBox="0 0 94 94" version="1.1" xmlns="http://www.w3.org/2000/svg" xmlns:xlink="http://www.w3.org/1999/xlink">
    <!-- Generator: Sketch 56.3 (81716) - https://sketch.com -->
    <title>Icons / Support</title>
    <desc>Created with Sketch.</desc>
    <defs>
        <linearGradient x1="4.18419471%" y1="49.6850592%" x2="94.1941481%" y2="50.2649694%" id="linearGradient-1">
            <stop stop-color="#0971BD" offset="0%"></stop>
            <stop stop-color="#58B5FF" offset="100%"></stop>
        </linearGradient>
        <linearGradient x1="50%" y1="-2.37747753%" x2="50%" y2="104.165466%" id="linearGradient-2">
            <stop stop-color="#6AB5F5" offset="0%"></stop>
            <stop stop-color="#2887CF" offset="100%"></stop>
        </linearGradient>
        <linearGradient x1="50%" y1="0%" x2="50%" y2="100%" id="linearGradient-3">
            <stop stop-color="#6AB5F5" offset="0%"></stop>
            <stop stop-color="#2887CF" offset="100%"></stop>
        </linearGradient>
    </defs>
    <g id="Icons-/-Support" stroke="none" stroke-width="1" fill="none" fill-rule="evenodd">
        <ellipse id="Oval" fill="url(#linearGradient-1)" opacity="0.198497954" cx="47.5" cy="69.5" rx="31.5" ry="2.5"></ellipse>
        <g id="download" transform="translate(26.000000, 19.000000)" fill="url(#linearGradient-2)" fill-rule="nonzero" stroke="url(#linearGradient-3)" stroke-width="0.3">
            <path d="M41.8320665,14.0617174 C42.7001383,16.427844 43.15,18.9343409 43.15,21.4994625 C43.15,24.0746334 42.6971173,26.5909076 41.832604,28.9115875 L41.832604,33.3104875 C41.832604,37.9653048 38.0454561,41.7525 33.3906951,41.7525 L29.1671643,41.7427097 C26.7311882,42.6687903 24.1460664,43.15 21.5002687,43.15 C18.8503458,43.15 16.2609021,42.6672719 13.8743141,41.7482 L9.62005475,41.7482 C4.964841,41.7482 1.1776084,37.9610895 1.1776084,33.3061875 L1.18692701,28.9894331 C0.306401801,26.6093371 -0.15,24.0849013 -0.15,21.5005375 C-0.15,18.916119 0.306422705,16.3911581 1.1776084,14.0626125 L1.1776084,9.6852125 C1.1776084,5.02985771 4.96475627,1.2426625 9.62005475,1.2426625 L13.8447641,1.25241346 C16.2775679,0.329595188 18.8588581,-0.15 21.4997313,-0.15 C24.1451891,-0.15 26.7308457,0.331283833 29.1133236,1.2475 L33.3901576,1.2475 C38.0450033,1.2475 41.8320665,5.03477994 41.8320665,9.69005 L41.8320665,14.0617174 Z M31.1319469,39.3338219 C34.5608491,37.4740716 37.3959578,34.6573339 39.2744988,31.2431706 L32.832624,27.6420999 C31.6204842,29.8703359 29.7714961,31.7012996 27.5306916,32.8923794 L31.1319469,39.3338219 Z M3.67975364,31.1580424 C5.53508231,34.5675123 8.33743917,37.3885727 11.7315221,39.2624431 L15.3326102,32.820376 C13.1249843,31.6130967 11.3083159,29.7782261 10.1212361,27.5571911 L3.67975364,31.1580424 Z M9.97913964,21.5005375 C9.97913964,27.8528318 15.1473539,33.021275 21.4997313,33.021275 C27.8518398,33.021275 33.0197854,27.8531005 33.0197854,21.5005375 C33.0197854,15.1484298 27.8517577,9.9803375 21.4997313,9.9803375 C15.1472495,9.9803375 9.97913964,15.1483476 9.97913964,21.5005375 Z M6.76267128,13.5664142 L10.1212356,15.4438836 C11.3083167,13.2228473 13.1249868,11.3879757 15.332615,10.180697 L11.7315175,3.73809659 C8.33743293,5.61196935 5.53507524,8.43303294 3.67974742,11.8425065 L5.56302634,12.8954953 C6.84391809,10.5226662 8.6254735,8.46191464 10.790708,6.87405616 C11.0967869,6.64964122 11.5258595,6.71606131 11.7514667,7.02146013 L11.751692,7.02176596 C11.9764569,7.3276425 11.9105922,7.75789307 11.6044961,7.9835122 C10.7768406,8.59043881 10.0083052,9.2730027 9.30688126,10.0222303 C8.31082889,11.0861659 7.45575982,12.2785693 6.76267128,13.5664142 Z M39.2750189,11.7573709 C37.3958112,8.34292297 34.5605678,5.52632211 31.1319553,3.6672381 L27.5306919,10.1086951 C29.7713559,11.2997009 31.6204016,13.1305855 32.8326132,15.3584496 L39.2750189,11.7573709 Z M39.8958104,30.0146684 C41.1272141,27.3646844 41.7744759,24.4767717 41.7744759,21.501075 C41.7744759,18.5242885 41.1272295,15.6353217 39.8958326,12.9863942 L33.428069,16.6018117 C34.063377,18.1438415 34.3947719,19.8000034 34.3947719,21.5005375 C34.3947719,23.2016417 34.0634402,24.8583151 33.4281016,26.3992816 L39.8958104,30.0146684 Z M32.0816106,2.6225 C35.5969399,4.60055868 38.5050725,7.5317445 40.4570799,11.0640121 L40.4570799,9.69005 C40.4570799,5.7933238 37.2864588,2.6225 33.3901576,2.6225 L32.0816106,2.6225 Z M29.8993265,3.05346669 C27.2792565,1.85496765 24.431489,1.2255375 21.4991938,1.2255375 C18.5123672,1.2255375 15.6142195,1.8768878 12.9587117,3.11583597 L16.574029,9.58358195 C18.123338,8.94075145 19.7887028,8.6053375 21.4991938,8.6053375 C23.1553878,8.6053375 24.7703634,8.92085882 26.2806036,9.52640895 L29.8993265,3.05346669 Z M2.36773753,11.4881636 L2.34216466,11.4322236 C2.34383962,11.4290494 2.34551535,11.4258757 2.34719184,11.4227024 C2.34798379,11.4222569 2.34887413,11.4217559 2.34987737,11.4211914 C2.35065411,11.4207491 2.35065411,11.4207491 2.35146888,11.4202853 C2.37167062,11.4086004 2.37167062,11.4086004 2.40998458,11.3929852 L2.45741928,11.5352875 L2.36773753,11.4881636 Z M2.55205747,11.0440918 C4.52521161,7.48253423 7.46937915,4.53600288 10.9735503,2.6176625 L9.61951726,2.6176625 C5.72276013,2.6176625 2.55205747,5.78840479 2.55205747,9.6852125 L2.55205747,11.0440918 Z M11.349908,2.41671085 C11.349911,2.41670928 11.349914,2.41670771 11.349917,2.41670613 C11.3498701,2.41680322 11.3498367,2.41687223 11.3498364,2.41687137 Z M3.06451614,13.0743897 C1.85867275,15.7007501 1.22496165,18.5583047 1.22444907,21.501075 C1.22444907,24.4429668 1.85796156,27.2999677 3.06399389,29.927227 L9.53572526,26.3095465 C8.92347196,24.791416 8.60415307,23.1667154 8.60415307,21.501075 C8.60415307,19.8345116 8.92333664,18.2097777 9.53569357,16.6925804 L6.158096,14.8043565 C5.23222591,16.9206761 4.74825502,19.1992549 4.74825502,21.5005375 C4.74825502,21.8806173 4.44083866,22.1880375 4.06076174,22.1880375 C3.68068482,22.1880375 3.37326846,21.8806173 3.37326846,21.5005375 C3.37326846,18.9670513 3.91697838,16.4576802 4.95484057,14.1312468 L3.06451614,13.0743897 Z M2.55205747,31.9559558 L2.55205747,31.442675 L2.40205747,31.442675 L2.36924023,31.5124108 L2.3251761,31.5355678 C2.33100521,31.5466597 2.33684364,31.5577459 2.34269138,31.5688264 L2.33818727,31.5783975 C2.34304962,31.580645 2.34718092,31.5825545 2.35082701,31.5842271 C2.41673035,31.7088602 2.48381212,31.8327747 2.55205747,31.9559558 Z M10.909174,40.3732 C11.0760773,40.4672294 11.24435,40.5591121 11.4139547,40.6488105 C11.3812108,40.6144012 11.364772,40.5971262 11.3565714,40.5885667 L11.4873064,40.5232 L11.4873064,40.3732 L10.909174,40.3732 Z M12.9592667,39.8852188 C15.6153675,41.1239405 18.513512,41.7755622 21.4997313,41.776075 C24.4320265,41.776075 27.2797939,41.1466449 29.899864,39.9481458 L26.2811223,33.4751699 C24.7699397,34.0806184 23.1549991,34.396275 21.4997313,34.396275 C19.7892387,34.396275 18.1238725,34.0608604 16.5745623,33.4180286 L12.9592667,39.8852188 Z M40.4570799,31.936522 C38.5052335,35.4684547 35.5972072,38.3993878 32.0814946,40.3780375 L33.3901576,40.3780375 C37.2867275,40.3780375 40.4570799,37.2074825 40.4570799,33.311025 L40.4570799,31.936522 Z" id="Shape"></path>
        </g>
    </g>
</svg>