<?xml version="1.0" encoding="UTF-8"?>
<svg width="94px" height="94px" viewBox="0 0 94 94" version="1.1" xmlns="http://www.w3.org/2000/svg" xmlns:xlink="http://www.w3.org/1999/xlink">
    <!-- Generator: Sketch 56.3 (81716) - https://sketch.com -->
    <title>Icons / Play / Yellow</title>
    <desc>Created with Sketch.</desc>
    <defs>
        <linearGradient x1="-26.9407242%" y1="49.6850592%" x2="64.1012525%" y2="50.5484399%" id="linearGradient-1">
            <stop stop-color="#BDBDBD" offset="0%"></stop>
            <stop stop-color="#CDCDCD" offset="55.9317301%"></stop>
            <stop stop-color="#EAEAEA" offset="100%"></stop>
        </linearGradient>
        <linearGradient x1="50%" y1="-2.37747753%" x2="50%" y2="103.842081%" id="linearGradient-2">
            <stop stop-color="#FDE09D" offset="0%"></stop>
            <stop stop-color="#F8DE9F" offset="100%"></stop>
        </linearGradient>
        <linearGradient x1="50%" y1="0.573341837%" x2="50%" y2="95.9191923%" id="linearGradient-3">
            <stop stop-color="#FFC43D" offset="0%"></stop>
            <stop stop-color="#FFECBF" offset="100%"></stop>
        </linearGradient>
        <linearGradient x1="49.9993912%" y1="-64.8110844%" x2="49.9993912%" y2="168.72769%" id="linearGradient-4">
            <stop stop-color="#F4AA00" offset="0%"></stop>
            <stop stop-color="#F4AA00" offset="98.1550887%"></stop>
        </linearGradient>
    </defs>
    <g id="Icons-/-Play-/-Yellow" stroke="none" stroke-width="1" fill="none" fill-rule="evenodd">
        <g id="polaroid" transform="translate(-1.000000, -1.000000)"></g>
        <g id="Icons-/-Play">
            <g id="polaroid"></g>
            <ellipse id="Oval" fill="url(#linearGradient-1)" opacity="0.292945499" cx="48.5" cy="70.5" rx="31.5" ry="2.5"></ellipse>
            <g id="icons8-play-button" transform="translate(23.000000, 30.000000)" fill-rule="nonzero">
                <path d="M25,36 C19.5185639,36 14.0371278,35.8328671 8.3617119,35.4994584 C4.08553651,35.2483305 0.636145828,31.8636748 0.336985976,27.6253556 C-0.112184867,21.2383072 -0.112184867,14.7612642 0.336123844,8.37507291 C0.636145828,4.13675376 4.08553651,0.751240998 8.3617119,0.500113089 C19.7134057,-0.166704363 30.2883185,-0.166704363 41.6382881,0.500113089 C45.9144635,0.751240998 49.3638542,4.13589667 49.663014,8.37421582 C50.1121849,14.7612642 50.1121849,21.2383072 49.6638762,27.6244985 C49.3638542,31.8628177 45.9144635,35.2483305 41.6382881,35.4994584 L41.6382881,35.4994584 C35.9628722,35.8328671 30.4814361,36 25,36 Z M41.5374186,33.7887031 L41.5882844,34.6440807 L41.5374186,33.7887031 C44.9505998,33.5881436 47.7042498,30.8865901 47.9439225,27.5053628 C48.3879206,21.198881 48.3879206,14.8024046 47.9430604,8.49420868 C47.7051119,5.11383846 44.9505998,2.41228498 41.5374186,2.21172549 C30.2538332,1.5491935 19.7470289,1.5491935 8.46344349,2.21172549 C5.05026237,2.41228498 2.29661232,5.11383846 2.05693959,8.49506577 C1.61294154,14.8015475 1.61294154,21.1980239 2.05780172,27.5062199 C2.29575019,30.8865901 5.05026237,33.5881436 8.46344349,33.7887031 C19.7461668,34.451235 30.2538332,34.451235 41.5374186,33.7887031 Z" id="Shape" fill="url(#linearGradient-2)"></path>
                <polygon id="Path" fill="url(#linearGradient-3)" points="19 25 19 11 31 18"></polygon>
                <path d="M18,27 L18,10 L32,18.5 L18,27 Z M19.7047184,13.0891347 L19.7047184,23.9099781 L28.6169863,18.5 L19.7047184,13.0891347 Z" id="Shape" fill="url(#linearGradient-4)"></path>
            </g>
        </g>
    </g>
</svg>