<?xml version="1.0" encoding="UTF-8"?>
<svg width="75px" height="75px" viewBox="0 0 75 75" version="1.1" xmlns="http://www.w3.org/2000/svg" xmlns:xlink="http://www.w3.org/1999/xlink">
    <!-- Generator: Sketch 55.2 (78181) - https://sketchapp.com -->
    <title>Icons / Feature / security-hub</title>
    <desc>Created with Sketch.</desc>
    <defs>
        <linearGradient x1="7.9118678%" y1="7.99588355%" x2="92.0881322%" y2="79.3300338%" id="linearGradient-1">
            <stop stop-color="#2488D3" offset="0%"></stop>
            <stop stop-color="#3F9FEA" offset="100%"></stop>
        </linearGradient>
        <linearGradient x1="7.9118678%" y1="23.2943751%" x2="92.0881322%" y2="68.6476219%" id="linearGradient-2">
            <stop stop-color="#2488D3" offset="0%"></stop>
            <stop stop-color="#3F9FEA" offset="100%"></stop>
        </linearGradient>
    </defs>
    <g id="Icons-/-Feature-/-security-hub" stroke="none" stroke-width="1" fill="none" fill-rule="evenodd" stroke-linecap="round" stroke-linejoin="round">
        <g id="security-hub" transform="translate(8.000000, 12.000000)" stroke-width="2">
            <path d="M15.5,50.77 L44.42,50.77 L15.5,50.77 Z M26.16,49.89 L26.16,42.19 L26.16,49.89 Z M33.76,49.89 L33.76,42.19 L33.76,49.89 Z M59.91,38.66 L59.91,3.15 C59.91,1.41030304 58.499697,0 56.76,0 L3.15,0 C1.41030304,0 0,1.41030304 0,3.15 L0,38.66 C0.00548940814,40.3918952 1.40810477,41.7945106 3.14,41.8 L56.76,41.8 C58.4919163,41.8 59.8990037,40.4018814 59.91,38.67 L59.91,38.66 Z" id="Shape" stroke="url(#linearGradient-1)"></path>
            <path d="M54.27,4.41 L31.9,4.41 L31.9,19.21 L54.27,19.21 L54.27,4.41 Z M28,4.41 L5.64,4.41 L5.64,19.21 L28,19.21 L28,4.41 Z M54.27,22.5 L31.9,22.5 L31.9,37.27 L54.27,37.27 L54.27,22.5 Z M28,22.5 L5.64,22.5 L5.64,37.27 L28,37.27 L28,22.5 Z M9.72,8 L13.93,8 L9.72,8 Z M35.07,8 L39.28,8 L35.07,8 Z M9.72,26.27 L13.93,26.27 L9.72,26.27 Z M35.07,26.27 L39.28,26.27 L35.07,26.27 Z" id="Shape" stroke="url(#linearGradient-2)"></path>
        </g>
    </g>
</svg>