<?xml version="1.0" encoding="UTF-8"?>
<svg width="75px" height="75px" viewBox="0 0 75 75" version="1.1" xmlns="http://www.w3.org/2000/svg" xmlns:xlink="http://www.w3.org/1999/xlink">
    <!-- Generator: Sketch 56.3 (81716) - https://sketch.com -->
    <title>Icons / Feature / dome-cameras / dark</title>
    <desc>Created with Sketch.</desc>
    <g id="Icons-/-Feature-/-dome-cameras-/-dark" stroke="none" stroke-width="1" fill="none" fill-rule="evenodd" stroke-linecap="round" stroke-linejoin="round">
        <g id="dome-cameras" transform="translate(19.000000, 11.000000)" stroke="#333333" stroke-width="2">
            <path d="M37.85,29.49 C37.85,43.05 29.38,54 18.93,54 C8.48,54 0,43.05 0,29.49 C0,15.93 8.48,5 18.93,5 C29.38,5 37.85,15.94 37.85,29.49 Z" id="Path"></path>
            <path d="M0.69,35.21 L36.91,35.22" id="Path"></path>
            <path d="M10.44,35.21 C12.26,40.54 15.38,44.06 18.93,44.06 C22.48,44.06 25.58,40.54 27.41,35.21 L10.44,35.21 Z" id="Path"></path>
            <path d="M26.83,7.09 C26.617582,3.11809108 23.3375819,0.00494504362 19.36,-7.77182233e-06 L18.49,-7.77182233e-06 C14.5046922,-0.00568698502 11.2128297,3.11037509 11,7.09" id="Path"></path>
        </g>
    </g>
</svg>