<?xml version="1.0" encoding="UTF-8"?>
<svg width="75px" height="75px" viewBox="0 0 75 75" version="1.1" xmlns="http://www.w3.org/2000/svg" xmlns:xlink="http://www.w3.org/1999/xlink">
    <!-- Generator: Sketch 56.3 (81716) - https://sketch.com -->
    <title>Icons / Feature / systems-integration-api / dark</title>
    <desc>Created with Sketch.</desc>
    <g id="Icons-/-Feature-/-systems-integration-api-/-dark" stroke="none" stroke-width="1" fill="none" fill-rule="evenodd" stroke-linecap="round" stroke-linejoin="round">
        <g id="systems-integration-api" transform="translate(11.000000, 13.000000)" stroke="#333333" stroke-width="2">
            <path d="M41.77,15.65 C41.77,24.2932563 34.7632563,31.3 26.12,31.3 C17.4767437,31.3 10.47,24.2932563 10.47,15.65 C10.47,7.00674367 17.4767437,0 26.12,0 C30.2706381,0 34.2512768,1.64883455 37.1862211,4.58377887 C40.1211654,7.5187232 41.77,11.4993619 41.77,15.65 Z" id="Path"></path>
            <path d="M52.24,33.07 C52.24,41.7132563 45.2332563,48.72 36.59,48.72 C27.9467437,48.72 20.94,41.7132563 20.94,33.07 C20.94,24.4267437 27.9467437,17.42 36.59,17.42 C45.2332563,17.42 52.24,24.4267437 52.24,33.07 Z" id="Path"></path>
            <path d="M31.3,33.07 C31.3,41.7132563 24.2932563,48.72 15.65,48.72 C7.00674367,48.72 0,41.7132563 0,33.07 C0,24.4267437 7.00674367,17.42 15.65,17.42 C24.2909705,17.4255161 31.2944839,24.4290295 31.3,33.07 Z" id="Path"></path>
        </g>
    </g>
</svg>