<?xml version="1.0" encoding="UTF-8"?>
<svg width="75px" height="75px" viewBox="0 0 75 75" version="1.1" xmlns="http://www.w3.org/2000/svg" xmlns:xlink="http://www.w3.org/1999/xlink">
    <!-- Generator: Sketch 56.3 (81716) - https://sketch.com -->
    <title>Icons / Feature / video-solutions / dark</title>
    <desc>Created with Sketch.</desc>
    <defs>
        <linearGradient x1="20.5176768%" y1="-416%" x2="79.4823232%" y2="517%" id="linearGradient-1">
            <stop stop-color="#268AD5" offset="0%"></stop>
            <stop stop-color="#3999E4" offset="100%"></stop>
        </linearGradient>
    </defs>
    <g id="Icons-/-Feature-/-video-solutions-/-dark" stroke="none" stroke-width="1" fill="none" fill-rule="evenodd">
        <path d="" id="Path" stroke="url(#linearGradient-1)" stroke-width="1.5" stroke-linecap="round" stroke-linejoin="round"></path>
        <rect id="Rectangle" stroke="#333333" stroke-width="1.5" x="11.25" y="51.25" width="52.5" height="13.5" rx="2"></rect>
        <polyline id="Path" stroke="#333333" stroke-width="1.5" stroke-linecap="round" stroke-linejoin="round" transform="translate(37.500000, 39.203430) scale(-1, 1) rotate(-180.000000) translate(-37.500000, -39.203430) " points="41 38 37.5 40.4068604 34 38"></polyline>
        <polyline id="Path-Copy" stroke="#333333" stroke-width="1.5" stroke-linecap="round" stroke-linejoin="round" transform="translate(37.500000, 44.203430) scale(-1, 1) rotate(-180.000000) translate(-37.500000, -44.203430) " points="41 43 37.5 45.4068604 34 43"></polyline>
        <circle id="Oval" stroke="#333333" stroke-width="1.5" cx="40" cy="58" r="1.75"></circle>
        <circle id="Oval-Copy" stroke="#333333" stroke-width="1.5" cx="48" cy="58" r="1.75"></circle>
        <circle id="Oval-Copy-2" stroke="#333333" stroke-width="1.5" cx="56" cy="58" r="1.75"></circle>
        <path d="M15.842,55 L25.5,55" id="Line-3" stroke="#333333" stroke-width="1.5" stroke-linecap="round" stroke-linejoin="round"></path>
        <path d="M15.842,58 L25.5,58" id="Line-3-Copy" stroke="#333333" stroke-width="1.5" stroke-linecap="round" stroke-linejoin="round"></path>
        <path d="M15.842,61 L25.5,61" id="Line-3-Copy-2" stroke="#333333" stroke-width="1.5" stroke-linecap="round" stroke-linejoin="round"></path>
        <path d="M53.82,31.17 L53.82,11.72 C53.82,10.7700702 53.0499298,10 52.1,10 L22.72,10 C21.7700702,10 21,10.7700702 21,11.72 L21,31.17 C21,32.1199298 21.7700702,32.89 22.72,32.89 L52.08,32.89 C53.0299298,32.89 53.8,32.1199298 53.8,31.17 L53.8,31.17 L53.82,31.17 Z" id="Path" stroke="#333333" stroke-width="1.5" stroke-linecap="round" stroke-linejoin="round"></path>
        <path d="M37.39,27.46 L37.39,27.46 C34.0327749,27.4489971 31.3154856,24.7272387 31.31,21.37 L31.31,21.37 C31.31,18.0121087 34.0321087,15.29 37.39,15.29 L37.39,15.29 C40.7478913,15.29 43.47,18.0121087 43.47,21.37 L43.47,21.37 C43.4645144,24.7272387 40.7472251,27.4489971 37.39,27.46 Z" id="Path" stroke="#333333" stroke-width="1.5" stroke-linecap="round" stroke-linejoin="round"></path>
        <polygon id="Path" stroke="#333333" stroke-width="1.5" stroke-linecap="round" stroke-linejoin="round" points="39.91 21.38 36 19.12 36 23.61"></polygon>
    </g>
</svg>